<?xml version="1.0" standalone="no"?>
<!DOCTYPE svg PUBLIC "-//W3C//DTD SVG 20010904//EN"
 "http://www.w3.org/TR/2001/REC-SVG-20010904/DTD/svg10.dtd">
<svg version="1.0" xmlns="http://www.w3.org/2000/svg"
 width="3825.000000pt" height="2137.000000pt" viewBox="0 0 3825.000000 2137.000000"
 preserveAspectRatio="xMidYMid meet">

<g transform="translate(0.000000,2137.000000) scale(0.100000,-0.100000)"
fill="#000000" stroke="none">
<path d="M10565 20374 c-571 -33 -850 -63 -1055 -110 -310 -73 -509 -126 -830
-225 -162 -50 -200 -65 -222 -90 -48 -51 -34 -119 28 -145 32 -14 48 -11 237
31 1126 250 2265 315 3347 189 1276 -147 2564 -555 3620 -1145 1155 -645 2177
-1559 2909 -2602 46 -65 93 -122 105 -126 41 -16 251 -23 279 -10 36 16 60 69
47 104 -11 28 -141 219 -264 385 -372 507 -886 1051 -1390 1475 -806 677
-1749 1231 -2746 1616 -504 194 -1039 348 -1590 459 -453 91 -826 140 -1365
181 -136 10 -989 20 -1110 13z"/>
<path d="M14972 20015 c-58 -48 -48 -126 20 -157 18 -9 103 -46 188 -84 945
-417 1836 -1002 2625 -1724 164 -150 509 -498 648 -653 311 -347 635 -771 859
-1125 51 -79 101 -148 112 -154 24 -13 184 -23 220 -14 40 10 66 41 66 79 0
37 -92 192 -282 475 -632 940 -1560 1851 -2568 2523 -371 248 -742 458 -975
554 -338 140 -803 305 -856 305 -15 0 -41 -11 -57 -25z"/>
<path d="M10595 19839 c-1707 -66 -3344 -563 -4870 -1478 -519 -311 -1083
-724 -1478 -1084 -177 -161 -584 -641 -831 -980 -64 -88 -78 -114 -78 -144 0
-64 74 -111 136 -87 9 3 71 68 137 143 1250 1409 2810 2395 4629 2926 1287
376 2597 486 3870 324 826 -105 1720 -346 2496 -674 205 -87 575 -267 779
-380 913 -504 1755 -1210 2411 -2020 65 -81 128 -159 140 -173 25 -31 79 -41
231 -41 l111 -1 26 31 c14 17 26 41 26 54 0 68 -460 615 -815 970 -888 888
-1923 1551 -3124 2002 -688 259 -1080 364 -1827 493 -601 103 -1298 146 -1969
119z"/>
<path d="M10535 19299 c-2670 -135 -5181 -1384 -6885 -3426 -1003 -1202 -1668
-2554 -1994 -4061 -95 -434 -110 -599 -110 -1202 0 -376 2 -429 17 -456 21
-41 67 -60 114 -48 63 16 72 40 84 214 96 1509 533 2932 1282 4170 770 1273
1883 2389 3142 3152 1657 1003 3679 1475 5565 1298 858 -81 1643 -271 2436
-591 1178 -475 2133 -1139 2943 -2046 83 -93 67 -88 282 -98 126 -6 126 -6
157 20 45 38 43 79 -6 142 -191 240 -611 653 -962 946 -1366 1139 -2991 1805
-4780 1962 -394 34 -896 44 -1285 24z"/>
<path d="M10475 18769 c-809 -51 -1534 -191 -2290 -444 -445 -148 -794 -293
-1212 -504 -747 -376 -1343 -778 -1947 -1310 -172 -151 -619 -598 -777 -776
-532 -600 -936 -1199 -1306 -1940 -543 -1086 -830 -2121 -925 -3335 -20 -250
-16 -973 5 -1230 126 -1491 578 -2885 1324 -4079 138 -220 497 -655 817 -988
102 -106 104 -108 149 -108 52 0 92 29 102 76 8 37 -1 53 -115 194 -557 692
-999 1441 -1325 2245 -348 859 -554 1760 -627 2750 -15 211 -15 827 0 1035 61
821 188 1447 452 2228 307 909 657 1573 1242 2355 408 545 901 1064 1418 1493
886 735 1912 1290 2983 1613 599 181 1159 288 1857 353 236 22 1083 25 1310 5
1049 -94 1912 -329 2815 -766 689 -334 1260 -723 1813 -1235 171 -158 146
-147 354 -156 112 -5 141 -4 166 9 36 18 55 66 42 101 -11 29 -237 255 -410
410 -774 693 -1736 1244 -2775 1590 -632 210 -1275 341 -1975 401 -217 19
-949 27 -1165 13z"/>
<path d="M10635 18223 c-1451 -69 -2791 -470 -3980 -1191 -456 -277 -993 -681
-1407 -1059 -529 -483 -1072 -1148 -1460 -1788 -1370 -2260 -1594 -4985 -612
-7450 371 -930 866 -1738 1540 -2513 152 -175 680 -706 849 -853 730 -639
1503 -1140 2352 -1525 598 -271 1339 -528 1728 -598 437 -79 943 -137 1315
-152 148 -6 156 -5 181 15 47 37 46 103 -3 135 -13 8 -84 22 -158 31 -190 23
-625 97 -825 140 -814 174 -1530 422 -2255 781 -1154 570 -2101 1288 -2896
2194 -696 793 -1258 1749 -1620 2755 -649 1803 -611 3891 105 5677 281 703
709 1426 1200 2028 277 341 718 799 991 1031 847 721 1725 1222 2750 1570 687
234 1260 348 2010 400 216 15 792 15 995 0 600 -45 1145 -143 1700 -306 740
-218 1550 -631 2199 -1123 l158 -120 91 -6 c51 -4 140 -8 199 -9 100 -2 108
-1 132 22 19 18 26 35 26 61 0 45 -24 69 -240 242 -756 604 -1550 1016 -2475
1284 -662 192 -1187 289 -1765 324 -147 9 -665 11 -825 3z"/>
<path d="M10600 17683 c-842 -37 -1671 -217 -2481 -538 -1638 -649 -2987
-1788 -3866 -3265 -335 -562 -631 -1231 -793 -1790 -284 -982 -379 -1973 -284
-2965 224 -2351 1515 -4527 3528 -5949 1253 -885 2826 -1481 4401 -1666 1444
-169 3076 3 4490 475 431 144 957 360 1244 512 133 69 456 271 676 422 218
149 597 433 624 467 29 37 27 77 -8 116 -46 52 -86 46 -196 -28 -49 -34 -169
-110 -265 -171 -1421 -892 -2863 -1369 -4590 -1517 -1016 -88 -2088 4 -3145
270 -1285 323 -2402 871 -3385 1659 -1132 907 -1969 2016 -2487 3295 -406
1004 -599 2084 -555 3107 45 1022 240 1868 641 2773 220 497 483 946 806 1380
258 346 403 517 660 779 566 577 1152 1014 1885 1406 867 463 1808 742 2825
837 221 20 1023 17 1245 -5 383 -39 685 -90 1040 -178 597 -147 1233 -404
1715 -692 113 -67 116 -68 422 -82 l153 -7 30 30 c29 30 37 62 24 97 -12 30
-321 225 -619 390 -715 396 -1499 645 -2435 774 -418 58 -905 82 -1300 64z"/>
<path d="M12554 16030 c-149 -27 -312 -113 -425 -225 -237 -234 -305 -601
-169 -902 64 -141 161 -256 284 -337 129 -85 219 -118 369 -135 400 -46 771
216 872 614 26 101 24 284 -4 390 -74 276 -288 497 -561 575 -85 25 -281 35
-366 20z"/>
<path d="M11204 15725 c-10 -25 5 -65 34 -92 37 -35 120 -73 160 -73 63 0 32
50 -82 128 -77 54 -103 62 -112 37z"/>
<path d="M9519 15560 c-97 -28 -135 -126 -88 -229 75 -168 309 -290 552 -291
43 0 87 5 98 10 41 22 17 76 -85 195 -93 108 -223 215 -341 280 -69 38 -100
46 -136 35z"/>
<path d="M11123 15070 c-87 -52 -30 -168 147 -300 209 -155 464 -227 412 -117
-25 55 -145 210 -222 287 -136 136 -253 182 -337 130z"/>
<path d="M10170 14661 c-65 -36 -85 -66 -85 -129 0 -123 76 -227 414 -562 238
-236 261 -261 296 -333 32 -64 39 -89 39 -140 1 -107 -42 -182 -202 -351 -70
-74 -120 -136 -137 -171 -26 -53 -27 -60 -21 -163 3 -59 9 -138 12 -175 10
-105 -4 -129 -165 -294 -188 -190 -270 -244 -469 -307 -172 -54 -331 -74 -882
-108 -427 -26 -1104 -32 -1310 -10 -307 33 -450 92 -698 290 -261 208 -416
281 -575 269 -92 -6 -189 -54 -231 -114 -60 -86 -44 -187 43 -266 102 -92 397
-202 702 -262 312 -61 578 -81 1164 -90 715 -11 900 -37 1230 -178 205 -87
303 -156 345 -243 26 -53 21 -90 -18 -126 -45 -42 -72 -51 -172 -56 -142 -7
-385 35 -600 104 -142 45 -223 33 -257 -38 -29 -58 21 -139 113 -184 50 -25
62 -26 137 -21 45 3 132 13 192 21 144 20 356 20 476 0 179 -31 394 -114 510
-200 82 -60 165 -157 189 -221 109 -288 -279 -601 -950 -767 -174 -43 -275
-115 -287 -203 -4 -32 -1 -45 20 -69 24 -27 30 -29 99 -28 97 0 177 33 433
175 332 185 439 224 588 217 73 -3 105 -10 153 -32 77 -34 144 -102 181 -181
26 -56 28 -68 28 -195 0 -153 -17 -234 -85 -398 -62 -150 -124 -245 -235 -357
-200 -204 -380 -296 -1050 -538 -628 -228 -906 -369 -1750 -892 -467 -289
-657 -392 -1005 -545 -237 -104 -398 -188 -440 -230 -77 -77 -88 -173 -30
-263 60 -95 166 -140 276 -117 137 29 253 112 648 464 466 414 823 679 1221
905 267 152 497 245 1040 421 250 81 381 135 485 202 146 94 417 205 828 341
302 99 303 99 342 35 11 -18 31 -62 45 -98 29 -76 53 -104 134 -159 68 -46
101 -102 101 -169 0 -62 -22 -105 -107 -209 -117 -144 -128 -177 -98 -277 22
-71 19 -105 -15 -172 -54 -108 -215 -273 -720 -736 -83 -76 -125 -122 -150
-167 -60 -108 -92 -144 -167 -189 -90 -54 -173 -131 -173 -160 0 -19 5 -22 43
-22 188 1 570 352 990 907 112 149 192 231 246 253 27 11 44 11 90 2 76 -16
106 -15 141 3 34 18 70 82 95 170 24 83 76 193 110 234 39 45 85 64 122 50 42
-16 82 -59 93 -100 18 -65 -13 -108 -88 -124 -43 -9 -90 -57 -98 -101 -23
-124 193 -150 324 -39 18 15 84 87 147 159 62 72 145 162 184 201 l71 69 0
-515 0 -516 526 -7 c289 -4 671 -4 850 0 l324 7 1 3191 1 3191 32 -95 c18 -52
475 -1489 1017 -3192 l984 -3098 347 0 347 0 54 168 c29 92 483 1525 1008
3185 l954 3018 3 -3186 2 -3185 675 0 675 0 0 3655 0 3655 -1038 0 -1038 0
-750 -2345 c-412 -1290 -752 -2345 -755 -2345 -4 0 -1166 3558 -1471 4508
l-59 182 -1345 0 -1344 0 0 -70 c0 -38 -3 -70 -6 -70 -3 0 -47 15 -98 34 -184
69 -459 124 -747 151 -260 24 -347 41 -464 95 -87 39 -153 96 -260 224 -52 63
-109 125 -126 137 -44 31 -122 36 -169 10z"/>
<path d="M20480 10495 l0 -3655 310 0 c337 0 399 7 521 56 135 55 266 161 346
279 56 84 79 130 110 232 l28 88 3 1123 3 1122 1022 0 c1089 0 1140 2 1381 51
453 92 830 288 1150 599 344 334 535 715 613 1220 13 87 17 176 17 365 0 216
-3 267 -22 378 -81 451 -271 820 -591 1151 -371 382 -887 587 -1599 636 -97 6
-735 10 -1723 10 l-1569 0 0 -3655z m3120 2541 c312 -45 519 -126 667 -260
247 -225 376 -592 334 -954 -32 -273 -124 -466 -308 -643 -128 -124 -258 -196
-455 -253 -186 -54 -235 -56 -1173 -56 l-865 0 0 1096 0 1096 843 -5 c719 -3
859 -7 957 -21z"/>
<path d="M26610 10495 l0 -3655 2375 0 2375 0 0 565 0 565 -1715 0 -1715 0 0
1025 0 1025 1360 0 1360 0 0 530 0 530 -1360 0 -1360 0 0 990 0 990 1690 0
1690 0 0 545 0 545 -2350 0 -2350 0 0 -3655z"/>
<path d="M31970 10495 l0 -3655 2250 0 2250 0 0 595 0 595 -1557 2 -1558 3 -3
3058 -2 3057 -690 0 -690 0 0 -3655z"/>
<path d="M7688 12350 c-30 -19 -20 -37 33 -59 109 -48 569 -134 681 -129 56 3
63 6 66 24 6 40 -48 59 -323 114 -265 53 -425 70 -457 50z"/>
<path d="M5551 11616 c-31 -37 205 -159 515 -267 125 -43 196 -37 241 21 22
27 16 84 -11 109 -30 29 -300 112 -435 135 -121 20 -294 22 -310 2z"/>
<path d="M7044 11331 c-17 -4 -36 -11 -42 -15 -23 -14 -13 -57 21 -91 48 -48
73 -50 702 -42 98 1 121 -2 210 -30 176 -56 267 -76 348 -77 75 -1 80 0 103
28 34 38 30 101 -6 127 -46 34 -201 61 -505 89 -147 14 -788 22 -831 11z"/>
<path d="M35014 10695 c-368 -57 -684 -295 -844 -638 -68 -145 -91 -248 -97
-432 -4 -135 -2 -175 15 -255 95 -454 427 -787 877 -881 102 -21 299 -25 405
-9 160 26 362 112 491 209 545 413 601 1208 119 1691 -255 254 -611 371 -966
315z m812 -794 c57 -26 110 -84 134 -148 32 -85 27 -93 -54 -93 -42 0 -44 2
-60 43 -49 129 -184 141 -245 23 -32 -63 -41 -207 -17 -288 28 -96 94 -149
166 -133 40 9 87 57 101 105 l12 40 56 -6 c31 -4 58 -9 60 -11 10 -8 -21 -100
-47 -138 -44 -64 -108 -97 -197 -103 -97 -6 -148 13 -208 76 -59 64 -88 142
-94 258 -6 102 6 172 43 245 27 54 99 121 146 136 55 18 158 15 204 -6z
m-1196 -346 l0 -355 -65 0 -65 0 0 355 0 355 65 0 65 0 0 -355z m435 112 l140
-238 3 240 2 241 50 0 50 0 0 -355 0 -355 -63 0 -63 0 -149 253 -150 254 -3
-254 -2 -253 -55 0 -55 0 0 355 0 356 77 -3 77 -3 141 -238z"/>
<path d="M8915 10510 c-291 -39 -373 -63 -383 -115 -6 -28 16 -35 108 -35 198
0 444 67 528 143 49 45 37 46 -253 7z"/>
<path d="M7300 10314 c-41 -14 -130 -36 -197 -49 -171 -34 -220 -63 -177 -105
35 -35 137 -53 264 -47 179 8 299 43 333 98 15 23 0 67 -33 100 -36 37 -84 37
-190 3z"/>
<path d="M7815 9484 c-313 -44 -535 -103 -1075 -284 -397 -133 -749 -237 -915
-270 -172 -34 -253 -79 -294 -163 -27 -55 -27 -97 1 -132 45 -58 122 -68 254
-35 140 36 288 97 729 302 557 260 602 272 1070 293 277 13 400 58 455 166 45
88 15 121 -114 125 -44 1 -94 0 -111 -2z"/>
<path d="M9261 5864 c-122 -61 -205 -154 -485 -541 -243 -335 -663 -700 -952
-828 -153 -68 -274 -192 -274 -282 0 -54 53 -88 129 -81 120 12 228 96 621
483 325 320 405 393 670 606 357 287 510 477 485 605 -15 83 -79 95 -194 38z"/>
</g>
</svg>
